<svg id="Filled" height="512" viewBox="0 0 512 512" width="512" xmlns="http://www.w3.org/2000/svg"><path d="m64.451 112h383.1a16.451 16.451 0 0 1 16.449 16.451v279.549a0 0 0 0 1 0 0h-416a0 0 0 0 1 0 0v-279.549a16.451 16.451 0 0 1 16.451-16.451z" fill="#757c80"/><path d="m80 144h352v216h-352z" fill="#a4d4f4"/><path d="m24 392h464a0 0 0 0 1 0 0v38a26 26 0 0 1 -26 26h-412a26 26 0 0 1 -26-26v-38a0 0 0 0 1 0 0z" fill="#b5b8b9"/><path d="m208 392h96a0 0 0 0 1 0 0v16a16 16 0 0 1 -16 16h-64a16 16 0 0 1 -16-16v-16a0 0 0 0 1 0 0z" fill="#99a2a7"/><path d="m349.823 82.177h64v144h-64z" fill="#298057" transform="matrix(-.707 -.707 .707 -.707 542.794 533.186)"/><path d="m406.392 73.608h64v48h-64z" fill="#fcb442" transform="matrix(-.707 -.707 .707 -.707 679.363 476.618)"/><path d="m423.362 64.637h64a0 0 0 0 1 0 0v16a16 16 0 0 1 -16 16h-32a16 16 0 0 1 -16-16v-16a0 0 0 0 1 0 0z" fill="#b5b8b9" transform="matrix(-.707 -.707 .707 -.707 720.333 459.646)"/><path d="m353.539 227.716v-22.628l-16.97-5.657-5.657-16.97h-22.628l-28.284 73.539z" fill="#fae8d8"/><path d="m329.024 237.141-49.024 18.859 18.859-49.024z" fill="#757c80"/><path d="m488 384h-16v-255.55a24.512 24.512 0 0 0 -.993-6.893l12.64-12.64a23.988 23.988 0 0 0 0-33.934l-22.629-22.63a24 24 0 0 0 -33.945 0l-51.647 51.647h-310.976a24.477 24.477 0 0 0 -24.45 24.45v255.55h-16a8 8 0 0 0 -8 8v38a34.038 34.038 0 0 0 34 34h412a34.038 34.038 0 0 0 34-34v-38a8 8 0 0 0 -8-8zm-264-102.957a60.076 60.076 0 0 0 31.852-49.043h24.807l-8.126 21.128a8 8 0 0 0 10.339 10.339l29.128-11.203v67.736h-88zm-16-10.72a44 44 0 1 1 30.323-54.323h-22.323a8 8 0 0 0 -8 8zm16-38.323h15.81a43.962 43.962 0 0 1 -15.81 29.916zm69.929 10.072 7.975-20.736 12.76 12.76zm37.078-14.261-22.818-22.818 5.589-14.532h11.368l3.833 11.5a8 8 0 0 0 5.06 5.06l11.5 3.833v11.367zm25.061-30.311-4.689-1.563 70.042-70.043 11.311 11.306-71.193 71.2v-3.309a8 8 0 0 0 -5.471-7.591zm-16-12.877-1.563-4.691a8 8 0 0 0 -7.59-5.47h-3.319l71.2-71.2 11.316 11.316zm-37.445-7.823.014.014a7.972 7.972 0 0 0 -1.82 2.772l-14 36.411h-32.02a59.986 59.986 0 1 0 -46.797 70.795v41.208a8 8 0 0 0 8 8h104a8 8 0 0 0 8-8v-81.89l28.411-10.927a7.972 7.972 0 0 0 2.777-1.825l.009.009 64.8-64.8v183.433h-335.997v-200h239.426zm141.423-50.91-33.941-33.941 11.314-11.314 33.941 33.941zm0-64.568a7.948 7.948 0 0 1 5.658 2.345l22.634 22.633a7.986 7.986 0 0 1 0 11.3l-5.659 5.659-33.946-33.938 5.655-5.654a7.945 7.945 0 0 1 5.657-2.345zm-388.046 67.128a8.46 8.46 0 0 1 8.45-8.45h294.976l-16 16h-263.426a8 8 0 0 0 -8 8v216a8 8 0 0 0 8 8h352a8 8 0 0 0 8-8v-207.436l16-16v247.436h-400zm160 271.55h80v8a8.009 8.009 0 0 1 -8 8h-64a8.009 8.009 0 0 1 -8-8zm264 30a18.021 18.021 0 0 1 -18 18h-412a18.021 18.021 0 0 1 -18-18v-30h168v8a24.027 24.027 0 0 0 24 24h64a24.027 24.027 0 0 0 24-24v-8h168z"/></svg>