<?xml version="1.0" encoding="utf-8"?>
<!-- Generator: Adobe Illustrator 23.0.1, SVG Export Plug-In . SVG Version: 6.00 Build 0)  -->
<svg version="1.1" id="Layer_1" xmlns="http://www.w3.org/2000/svg" xmlns:xlink="http://www.w3.org/1999/xlink" x="0px" y="0px"
	 viewBox="0 0 504.4 504.4" style="enable-background:new 0 0 504.4 504.4;" xml:space="preserve">
<style type="text/css">
	.st0{display:none;}
	.st1{display:inline;}
</style>
<g class="st0">
	<g class="st1">
		<path d="M195.2,184.2H188h-48v44h51.6c9.2,0,17.2-2.4,17.2-23.6S195.2,184.2,195.2,184.2z"/>
	</g>
</g>
<g class="st0">
	<g class="st1">
		<path d="M195.2,260.2H140v56h48.4c0.8,0,2,0,3.6,0c8,0,23.2-3.2,23.2-27.2C215.6,260.6,195.2,260.2,195.2,260.2z"/>
	</g>
</g>
<g class="st0">
	<g class="st1">
		<path d="M377.6,0.2H126.4C56.8,0.2,0,57,0,126.6v251.6c0,69.2,56.8,126,126.4,126H378c69.6,0,126.4-56.8,126.4-126.4V126.6
			C504,57,447.2,0.2,377.6,0.2z M296,160.2h84v20h-84V160.2z M256.8,291.8c0,62.4-61.6,64.4-61.6,64.4h-56.8h-1.6H96v-208h40.4h1.6
			h56.8c30.8,0,55.2,17.6,55.2,54.4s-29.6,38.8-29.6,38.8C259.6,241,256.8,291.8,256.8,291.8z M407.6,288.2H306.4
			c0,40,34.4,36.8,34.4,36.8c32.4,0,31.2-20.8,31.2-20.8h34.4c0,56-66.8,53.6-66.8,53.6c-80,0-74.8-78.8-74.8-78.8s0-79.2,74.8-79.2
			C418.4,199.4,407.6,288.2,407.6,288.2z"/>
	</g>
</g>
<g class="st0">
	<g class="st1">
		<path d="M340.4,228.6c-30,0-34.4,31.6-34.4,31.6h64C370,260.2,370.4,228.6,340.4,228.6z"/>
	</g>
</g>
<path d="M469.9,162.8c-1-23.1-4.8-39-10.1-52.8c-5.5-14.6-14-27.7-25.2-38.6c-10.9-11.1-24.1-19.6-38.5-25.1
	c-13.9-5.4-29.7-9.1-52.8-10.1c-23.3-1.1-30.7-1.4-89.8-1.4s-66.5,0.3-89.7,1.3c-23.1,1-39,4.8-52.8,10.1
	c-14.6,5.5-27.7,14-38.6,25.2c-11.1,10.9-19.6,24.1-25.1,38.5c-5.4,13.9-9.1,29.7-10.1,52.8c-1.1,23.3-1.4,30.7-1.4,89.8
	s0.3,66.5,1.3,89.7c1,23.1,4.8,39,10.1,52.8c5.5,14.6,14.1,27.7,25.2,38.6c10.9,11.1,24.1,19.6,38.5,25.1
	c13.9,5.4,29.7,9.1,52.8,10.1c23.2,1,30.6,1.3,89.7,1.3s66.5-0.3,89.7-1.3c23.1-1,39-4.8,52.8-10.1c29.3-11.3,52.4-34.4,63.7-63.7
	c5.4-13.9,9.1-29.7,10.1-52.8c1-23.2,1.3-30.6,1.3-89.7S470.9,186,469.9,162.8z M430.7,340.6c-0.9,21.3-4.5,32.7-7.5,40.4
	c-7.3,19-22.4,34-41.3,41.3c-7.7,3-19.2,6.5-40.4,7.5c-23,1-29.9,1.3-87.9,1.3s-65.1-0.3-87.9-1.3c-21.3-0.9-32.7-4.5-40.4-7.5
	c-9.4-3.5-18-9-25-16.2c-7.2-7.1-12.8-15.6-16.2-25c-3-7.7-6.5-19.2-7.5-40.4c-1-23-1.3-29.9-1.3-87.9s0.3-65.1,1.3-87.9
	c0.9-21.3,4.5-32.7,7.5-40.4c3.5-9.4,9-18,16.3-25c7.1-7.2,15.6-12.8,25-16.2c7.7-3,19.2-6.5,40.4-7.5c23-1,29.9-1.3,87.9-1.3
	c58.2,0,65.1,0.3,87.9,1.3c21.3,0.9,32.7,4.5,40.4,7.5c9.4,3.5,18,9,25,16.2c7.2,7.1,12.8,15.6,16.2,25c3,7.7,6.5,19.2,7.5,40.4
	c1,23,1.3,29.9,1.3,87.9S431.7,317.6,430.7,340.6z"/>
<path d="M253.4,140.7c-61.7,0-111.8,50.1-111.8,111.8s50.1,111.8,111.8,111.8c61.8,0,111.8-50.1,111.8-111.8
	S315.2,140.7,253.4,140.7z M253.4,325.1c-40.1,0-72.6-32.5-72.6-72.6s32.5-72.6,72.6-72.6c40.1,0,72.6,32.5,72.6,72.6
	S293.5,325.1,253.4,325.1z"/>
<path d="M395.8,136.3c0,14.4-11.7,26.1-26.1,26.1c-14.4,0-26.1-11.7-26.1-26.1c0-14.4,11.7-26.1,26.1-26.1
	C384.1,110.2,395.8,121.9,395.8,136.3z"/>
</svg>
