<svg xmlns="http://www.w3.org/2000/svg" viewBox="0 0 231.04 230.79"><defs><style>.cls-1{fill:#1d1d1b;}</style></defs><title>issu</title><g id="Capa_2" data-name="Capa 2"><g id="Layer_1" data-name="Layer 1"><path class="cls-1" d="M115.57,0h-.52l6,6h0a6.09,6.09,0,0,0-6-6H6.09a6.09,6.09,0,0,0-6,6V88c0,10.1-.22,20.22,0,30.31A116.43,116.43,0,0,0,25.26,187.4c31.64,40,87.94,54.33,134.93,34.58s76.3-69.63,70-120.33C224,51.74,185,9.91,135.06,1.67A126,126,0,0,0,115.57,0c-7.72,0-7.73,12,0,12,46.85.3,88.66,32.37,100.31,77.93,11.75,46-10.3,95-52.09,117.15S69.22,219.15,37.93,183.92a103.17,103.17,0,0,1-25.66-62.15c-.54-9.52-.18-19.15-.18-28.69V43.59c0-11.84.56-23.83,0-35.66,0-.64,0-1.29,0-1.93l-6,6h109l-6-6h0a6.08,6.08,0,0,0,6,6h.52C123.29,11.9,123.31-.1,115.57,0Z"/><path class="cls-1" d="M115.65,184.7c-28.88-.53-55.56-18.88-65.22-46.38a70.86,70.86,0,0,1,21.76-78c22.65-18.64,55.75-20.63,80.69-5.4S191,100.22,185,128.79a70.81,70.81,0,0,1-69.32,55.91c-7.72,0-7.73,12,0,12a83.06,83.06,0,0,0,77.51-53.22c12.22-31.9,2.23-69.74-24-91.54-26.52-22-64.9-25.51-94.67-7.77s-45,52.61-38.56,86.4c7.22,38,41.48,65.42,79.74,66.13C123.38,196.84,123.38,184.84,115.65,184.7Z"/><path class="cls-1" d="M153.23,114.55c-.25,15.4-9.63,29.74-24.31,35.11a37.51,37.51,0,1,1,24.31-35.11c.12,7.71,12.12,7.74,12,0a50.2,50.2,0,0,0-33.12-46.68C113,61,90.59,67.29,77.72,83c-13.16,16-15.15,39.24-4.32,57.09A50.07,50.07,0,0,0,125.62,163c23-4.43,39.24-25.39,39.61-48.46C165.35,106.82,153.35,106.82,153.23,114.55Z"/></g></g></svg>