<?xml version="1.0" encoding="iso-8859-1"?>
<!-- Generator: Adobe Illustrator 19.0.0, SVG Export Plug-In . SVG Version: 6.00 Build 0)  -->
<svg version="1.1" id="Capa_1" xmlns="http://www.w3.org/2000/svg" xmlns:xlink="http://www.w3.org/1999/xlink" x="0px" y="0px"
	 viewBox="0 0 479.73 479.73" style="enable-background:new 0 0 479.73 479.73;" xml:space="preserve">
<path style="fill:#C0E5E7;" d="M147.865,47.73h264v392h-264V47.73z"/>
<path style="fill:#71C285;" d="M147.865,47.73c0-22.091-17.909-40-40-40s-40,17.909-40,40v392h80V47.73z"/>
<path style="fill:#4D8157;" d="M147.865,439.73v-8c0-22.091-17.909-40-40-40s-40,17.909-40,40s17.909,40,40,40h224v-32H147.865z"/>
<path style="fill:#29ABE2;" d="M179.865,79.73h200v80h-200V79.73z"/>
<path style="fill:#F15A24;" d="M179.865,191.73h96v88h-96V191.73z"/>
<path style="fill:#24AE5F;" d="M283.865,311.73h96v96h-96V311.73z"/>
<path d="M411.865,39.73h-256.72c-4.572-26.112-29.446-43.575-55.559-39.003C76.723,4.73,59.999,24.519,59.865,47.73v392h0.72
	c3.919,23.066,23.883,39.957,47.28,40h224c4.418,0,8-3.582,8-8v-24h72c4.418,0,8-3.582,8-8v-392
	C419.865,43.312,416.283,39.73,411.865,39.73z M107.865,15.73c17.673,0,32,14.327,32,32v348.32c-18.171-16.426-45.829-16.426-64,0
	V47.73C75.865,30.057,90.192,15.73,107.865,15.73z M323.865,463.73h-216c-17.673,0-32-14.327-32-32s14.327-32,32-32s32,14.327,32,32
	v8c0,4.418,3.582,8,8,8h176V463.73z M403.865,431.73h-248v-376h248V431.73z"/>
<path d="M179.865,167.73h200c4.418,0,8-3.582,8-8v-80c0-4.418-3.582-8-8-8h-200c-4.418,0-8,3.582-8,8v80
	C171.865,164.148,175.447,167.73,179.865,167.73z M187.865,87.73h184v64h-184V87.73z"/>
<path d="M179.865,287.73h96c4.418,0,8-3.582,8-8v-88c0-4.418-3.582-8-8-8h-96c-4.418,0-8,3.582-8,8v88
	C171.865,284.148,175.447,287.73,179.865,287.73z M187.865,199.73h80v72h-80V199.73z"/>
<path d="M379.865,303.73h-96c-4.418,0-8,3.582-8,8v96c0,4.418,3.582,8,8,8h96c4.418,0,8-3.582,8-8v-96
	C387.865,307.312,384.283,303.73,379.865,303.73z M371.865,399.73h-80v-80h80V399.73z"/>
<path d="M299.865,191.73h88v16h-88V191.73z"/>
<path d="M299.865,223.73h88v16h-88V223.73z"/>
<path d="M299.865,255.73h88v16h-88V255.73z"/>
<path d="M171.865,303.73h88v16h-88V303.73z"/>
<path d="M171.865,335.73h88v16h-88V335.73z"/>
<path d="M171.865,367.73h88v16h-88V367.73z"/>
<path d="M171.865,399.73h88v16h-88V399.73z"/>
<g>
</g>
<g>
</g>
<g>
</g>
<g>
</g>
<g>
</g>
<g>
</g>
<g>
</g>
<g>
</g>
<g>
</g>
<g>
</g>
<g>
</g>
<g>
</g>
<g>
</g>
<g>
</g>
<g>
</g>
</svg>
