<?xml version="1.0" encoding="iso-8859-1"?>
<!-- Generator: Adobe Illustrator 19.0.0, SVG Export Plug-In . SVG Version: 6.00 Build 0)  -->
<svg version="1.1" id="Capa_1" xmlns="http://www.w3.org/2000/svg" xmlns:xlink="http://www.w3.org/1999/xlink" x="0px" y="0px"
	 viewBox="0 0 506.366 506.366" style="enable-background:new 0 0 506.366 506.366;" xml:space="preserve">
<g>
	<g>
		<path d="M492.31,376.059c-0.002-0.002-0.004-0.004-0.006-0.006l-0.048-0.16c-14.577-13.851-36.112-17.449-54.4-9.088
			L327.2,256.133v-77.264h-77.232L139.456,68.373c8.935-18.273,5.213-40.209-9.248-54.512c-18.998-18.129-48.89-18.129-67.888,0
			c-18.742,18.748-18.738,49.14,0.01,67.882c9.003,9,21.212,14.055,33.942,14.054c7.126-0.039,14.153-1.68,20.56-4.8l59.2,59.2
			c-26.64-8.088-54.353-12.086-82.192-11.856l-5.76-32.432L0,121.397l15.536,88.08l88.096-15.536l-4.224-23.856
			c45.487,0.61,89.869,14.103,128,38.912v69.696h69.696c24.826,38.124,38.324,82.51,38.928,128l-23.872-4.224l-15.536,88.096
			l88.08,15.536l15.552-88l-32.352-5.712c0.248-27.829-3.745-55.533-11.84-82.16l59.104,59.2
			c-11.39,23.889-1.258,52.488,22.63,63.879c18.319,8.735,40.154,4.982,54.506-9.367
			C511.051,425.198,511.053,394.806,492.31,376.059z M108.287,58.391c-0.232,0.247-0.472,0.487-0.719,0.718
			c-6.322,6.049-16.286,6.049-22.608,0c-6.246-6.248-6.246-16.376,0-22.624c6.049-6.442,16.175-6.76,22.616-0.711
			C114.018,41.824,114.336,51.949,108.287,58.391z M41.488,172.469l-4.416-25.056l25.056-4.416l4.416,25.056L41.488,172.469z
			 M295.232,246.757h-35.888v-35.888h35.888V246.757z M363.104,443.973l-4.416,25.056l-25.056-4.416l4.416-25.056L363.104,443.973z
			 M469.619,421.138c-0.001,0.001-0.002,0.002-0.003,0.003c-6.324,6.059-16.3,6.059-22.624,0
			c-6.249-6.247-6.251-16.378-0.003-22.627s16.378-6.251,22.627-0.003S475.867,414.889,469.619,421.138z"/>
	</g>
</g>
<g>
</g>
<g>
</g>
<g>
</g>
<g>
</g>
<g>
</g>
<g>
</g>
<g>
</g>
<g>
</g>
<g>
</g>
<g>
</g>
<g>
</g>
<g>
</g>
<g>
</g>
<g>
</g>
<g>
</g>
</svg>
