<svg xmlns="http://www.w3.org/2000/svg" viewBox="0 0 426.04 601.05"><defs><style>.cls-1{fill:#60160e;}</style></defs><title>SDlogo</title><g id="Capa_2" data-name="Capa 2"><g id="Capa_1-2" data-name="Capa 1"><path class="cls-1" d="M246.5,601.05c34.11-31,51.61-68.14,52.79-112.75.8-30.51-9.48-56.71-35.4-73.65-25.3-16.53-53.08-29.53-80-43.66C147,351.62,106.57,336.84,73.34,312.73-37.17,232.52-19.74,84.1,105.1,26.35c48-22.18,98.84-30.93,151.47-24.06,38.49,5,76.67,12.66,114.59,20.86,6.39,1.38,15.16,11.47,15.33,17.72,1.4,50.29,1.36,100.63.63,150.94-.08,5.75-7.08,11.4-10.87,17.1-5.57-5-13.71-9-16.25-15.18-12.2-29.65-18.55-62.35-35-89.36-30.9-50.71-86-69.79-144.87-56.81-28.2,6.22-48.82,21.67-57.19,48.91-8.68,28.28-5.48,57.31,18.45,76,27.36,21.35,59.06,37.71,89.71,54.82,35.77,20,73.94,36.17,108.39,58,56.21,35.6,90.24,84.65,86.25,153.38-2.62,45.24-23.9,80.93-57.48,110.46C333.94,579.28,292.22,593.83,246.5,601.05Z"/><path class="cls-1" d="M232,432.9c30.59,9.51,46.47,48.34,35.63,82.28-20.24,63.33-87.18,98.29-152.25,78.23C61,576.64,25.42,541.2,13.38,486.54s12.08-98,49.22-136.31c2.58-2.66,8-6.4,9.9-5.45,25.5,12.93,50.6,26.6,75.8,40.09l-4.53,8.75c-7.93-2.32-15.81-4.84-23.81-6.92-23.21-6.05-45.81-5.31-63.43,12.27C37.64,417.79,36.43,441.12,45,464.92c18,50.4,87.4,90.41,142,82.75,42.49-6,84.39-63,49.53-103.83C234.28,441.32,233.78,437.48,232,432.9Z"/></g></g></svg>